<svg xmlns="http://www.w3.org/2000/svg" viewBox="0 0 600 280" role="img" aria-label="Anonymized RBAC request lifecycle: Request arrives, token validated, role checked, endpoint handler runs, response returned">
  <title>RBAC Request Lifecycle (Anonymized)</title>
  <style>
    text { font-family: ui-monospace, 'Cascadia Code', monospace; fill: #1e293b; font-size: 12px; }
    .box { fill: #f1f5f9; stroke: #cbd5e1; stroke-width: 1.5; }
    .decision { fill: #f1f5f9; stroke: #94a3b8; stroke-width: 1.5; }
    .arrow { stroke: #94a3b8; stroke-width: 1.5; fill: none; marker-end: url(#arr2); }
    .label { fill: #475569; font-size: 10px; }
    .reject { fill: #fee2e2; stroke: #ef4444; stroke-width: 1; }
    .reject-text { fill: #b91c1c; }
    .anon-badge { fill: #f8fafc; stroke: #cbd5e1; stroke-width: 1; }
    .anon-text { fill: #64748b; font-size: 9px; font-style: italic; }
  </style>
  <defs>
    <marker id="arr2" markerWidth="8" markerHeight="8" refX="6" refY="3" orient="auto">
      <path d="M0,0 L0,6 L8,3 z" fill="#94a3b8"/>
    </marker>
  </defs>

  <text x="300" y="25" text-anchor="middle" font-size="13" font-weight="600" fill="#1e293b">RBAC Request Lifecycle (Anonymized)</text>

  <!-- Step 1: Request -->
  <rect x="210" y="40" width="180" height="34" rx="6" class="box"/>
  <text x="300" y="61" text-anchor="middle">Incoming API Request</text>

  <!-- Arrow -->
  <line x1="300" y1="74" x2="300" y2="94" class="arrow"/>

  <!-- Step 2: Token check -->
  <rect x="190" y="94" width="220" height="34" rx="6" fill="#1e3a5f" stroke="#2563eb" stroke-width="1.5"/>
  <text x="300" y="115" text-anchor="middle" fill="#93c5fd">Validate JWT Token</text>

  <!-- Arrow + branch -->
  <line x1="300" y1="128" x2="300" y2="148" class="arrow"/>
  <!-- Reject branch -->
  <line x1="410" y1="111" x2="480" y2="111" class="arrow"/>
  <rect x="480" y="97" width="110" height="28" rx="4" class="reject"/>
  <text x="535" y="115" text-anchor="middle" font-size="11" class="reject-text">401 Unauthorized</text>
  <text x="445" y="108" text-anchor="middle" class="label">invalid</text>

  <!-- Step 3: Role check -->
  <rect x="190" y="148" width="220" height="34" rx="6" fill="#14532d" stroke="#16a34a" stroke-width="1.5"/>
  <text x="300" y="169" text-anchor="middle" fill="#86efac">Check Role / Permission</text>

  <!-- Arrow + branch -->
  <line x1="300" y1="182" x2="300" y2="202" class="arrow"/>
  <!-- Reject branch -->
  <line x1="410" y1="165" x2="480" y2="165" class="arrow"/>
  <rect x="480" y="151" width="110" height="28" rx="4" class="reject"/>
  <text x="535" y="169" text-anchor="middle" font-size="11" class="reject-text">403 Forbidden</text>
  <text x="445" y="162" text-anchor="middle" class="label">no access</text>

  <!-- Step 4: Handler -->
  <rect x="200" y="202" width="200" height="34" rx="6" class="box"/>
  <text x="300" y="223" text-anchor="middle">Endpoint Handler</text>

  <!-- Arrow -->
  <line x1="300" y1="236" x2="300" y2="252" class="arrow"/>

  <!-- Step 5: Response -->
  <rect x="210" y="252" width="180" height="22" rx="4" class="box"/>
  <text x="300" y="267" text-anchor="middle" font-size="11" fill="#475569">200 OK Response</text>

  <!-- Anon note -->
  <rect x="8" y="262" width="190" height="14" rx="3" class="anon-badge"/>
  <text x="14" y="272" class="anon-text">Anonymized conceptual flow</text>
</svg>
